<?xml version="1.0" encoding="UTF-8" standalone="no"?>
<svg
   xmlns:dc="http://purl.org/dc/elements/1.1/"
   xmlns:cc="http://creativecommons.org/ns#"
   xmlns:rdf="http://www.w3.org/1999/02/22-rdf-syntax-ns#"
   xmlns:svg="http://www.w3.org/2000/svg"
   xmlns="http://www.w3.org/2000/svg"
   id="svg852"
   version="1.1"
   viewBox="0 0 9.5249998 4.2333335"
   height="16"
   width="36">
  <defs
     id="defs846" />
  <metadata
     id="metadata849">
    <rdf:RDF>
      <cc:Work
         rdf:about="">
        <dc:format>image/svg+xml</dc:format>
        <dc:type
           rdf:resource="http://purl.org/dc/dcmitype/StillImage" />
        <dc:title></dc:title>
      </cc:Work>
    </rdf:RDF>
  </metadata>
  <g
     transform="translate(0,-292.76666)"
     id="layer1">
    <path
       d="m 9.3230228,294.20564 q 0.067344,0 0.093697,0.0176 0.026352,0.0176 0.026352,0.0586 0,0.0703 -0.076128,0.50069 -0.067344,0.41285 -0.079056,0.48898 -0.1083365,0.7525 -0.2986574,1.1917 -0.1903209,0.43921 -0.5065463,0.43921 -0.1493287,0 -0.2430252,-0.0937 -0.093696,-0.0908 -0.093696,-0.2401 0,-0.13762 0.061488,-0.28109 0.064416,-0.14347 0.2342411,-0.33086 0.1727528,-0.18447 0.4860502,-0.42457 l 0.00878,-0.0673 q 0.020496,-0.10834 0.046848,-0.31037 -0.05856,0.21082 -0.1639688,0.32208 -0.1054085,0.10834 -0.222529,0.10834 -0.1317606,0 -0.216673,-0.12005 -0.081984,-0.12298 -0.081984,-0.30451 0,-0.2196 0.02928,-0.40114 0.02928,-0.18447 0.096624,-0.38943 0.02928,-0.0878 0.081984,-0.1259 0.052704,-0.0381 0.1668967,-0.0381 0.064416,0 0.08784,0.0205 0.026352,0.0205 0.026352,0.0615 0,0.0234 -0.032208,0.15811 -0.02928,0.10834 -0.046848,0.19618 -0.023424,0.12005 -0.040992,0.23131 -0.017568,0.10834 -0.017568,0.17861 0,0.11126 0.061488,0.11126 0.04392,0 0.1083365,-0.0878 0.067344,-0.0878 0.1405447,-0.26644 0.076128,-0.17861 0.1464006,-0.43921 0.023424,-0.0878 0.070272,-0.1259 0.049776,-0.0381 0.1464006,-0.0381 z m -0.8081317,2.41269 q 0.0732,0 0.1639688,-0.16983 0.090768,-0.16982 0.1815368,-0.5651 -0.225457,0.19032 -0.3279375,0.3455 -0.099552,0.15811 -0.099552,0.27524 0,0.0498 0.017568,0.082 0.020496,0.0322 0.064416,0.0322 z m -1.3412587,-1.03359 q -0.1112646,0 -0.1581128,-0.11712 -0.04392,-0.11712 -0.04392,-0.37479 0,-0.38064 0.1083365,-0.72322 0.026352,-0.0849 0.084912,-0.12297 0.061488,-0.041 0.1698248,-0.041 0.05856,0 0.081984,0.0146 0.023424,0.0146 0.023424,0.0556 0,0.0469 -0.04392,0.21081 -0.02928,0.11712 -0.046848,0.20496 -0.017568,0.0879 -0.02928,0.21668 0.096625,-0.25181 0.216673,-0.40992 0.1200486,-0.15812 0.2342411,-0.22546 0.1171206,-0.0673 0.213745,-0.0673 0.1903209,0 0.1903209,0.19033 0,0.0381 -0.026352,0.18446 -0.023424,0.11712 -0.023424,0.1464 0,0.10248 0.0732,0.10248 0.081984,0 0.210817,-0.12883 0.038064,-0.0381 0.079056,-0.0381 0.038064,0 0.05856,0.0351 0.023424,0.0322 0.023424,0.0878 0,0.10834 -0.05856,0.16983 -0.081984,0.0849 -0.1932489,0.1464 -0.1083365,0.0586 -0.2313131,0.0586 -0.1551847,0 -0.2371691,-0.0791 -0.079056,-0.0791 -0.079056,-0.21374 0,-0.0439 0.00878,-0.0878 0.00586,-0.0586 0.00586,-0.0791 0,-0.0469 -0.032208,-0.0469 -0.04392,0 -0.1171205,0.0995 -0.070272,0.0966 -0.1405447,0.25767 -0.070272,0.16104 -0.1141925,0.33965 -0.032208,0.13761 -0.076128,0.18739 -0.040992,0.0469 -0.1317606,0.0469 z m -1.2259687,0 q -0.1815368,0 -0.2898733,-0.13176 -0.1083365,-0.13176 -0.1083365,-0.34551 0,-0.23424 0.1083365,-0.44213 0.1083365,-0.21081 0.2869453,-0.33672 0.1815369,-0.12883 0.3835698,-0.12883 0.064416,0 0.084912,0.0263 0.023424,0.0234 0.038064,0.0878 0.061488,-0.0117 0.1288326,-0.0117 0.1434726,0 0.1434726,0.10248 0,0.0615 -0.04392,0.2928 -0.067344,0.33672 -0.067344,0.46848 0,0.0439 0.020496,0.0703 0.023424,0.0263 0.05856,0.0263 0.055632,0 0.1346886,-0.0703 0.079056,-0.0732 0.213745,-0.23425 0.035136,-0.041 0.079056,-0.041 0.038064,0 0.05856,0.0351 0.023424,0.0351 0.023424,0.0966 0,0.11712 -0.055632,0.18154 -0.1200486,0.14933 -0.2547372,0.25181 -0.1346886,0.10248 -0.2605932,0.10248 -0.096625,0 -0.1786088,-0.0644 -0.079056,-0.0673 -0.1200486,-0.18153 -0.1522567,0.24595 -0.3835698,0.24595 z m 0.1054085,-0.29573 q 0.064416,0 0.1229766,-0.0761 0.05856,-0.0761 0.084912,-0.20203 l 0.1083365,-0.53876 q -0.1229766,0.003 -0.2283851,0.0937 -0.1024804,0.0878 -0.1639687,0.23424 -0.061488,0.1464 -0.061488,0.31037 0,0.0908 0.035136,0.13469 0.038064,0.0439 0.1024805,0.0439 z m -1.5901399,0.29573 q -0.1112645,0 -0.1581127,-0.11712 -0.04392,-0.11712 -0.04392,-0.37479 0,-0.38064 0.1083365,-0.72322 0.026352,-0.0849 0.084912,-0.12297 0.061488,-0.041 0.1698248,-0.041 0.05856,0 0.081984,0.0146 0.023424,0.0146 0.023424,0.0556 0,0.0469 -0.04392,0.21081 -0.02928,0.11712 -0.046848,0.20496 -0.017568,0.0879 -0.02928,0.21668 0.096624,-0.25181 0.216673,-0.40992 0.1200486,-0.15812 0.2342411,-0.22546 0.1171205,-0.0673 0.213745,-0.0673 0.1903209,0 0.1903209,0.19033 0,0.0381 -0.026352,0.18446 -0.023424,0.11712 -0.023424,0.1464 0,0.10248 0.0732,0.10248 0.081984,0 0.2108169,-0.12883 0.038064,-0.0381 0.079056,-0.0381 0.038064,0 0.05856,0.0351 0.023424,0.0322 0.023424,0.0878 0,0.10834 -0.05856,0.16983 -0.081984,0.0849 -0.1932489,0.1464 -0.1083365,0.0586 -0.231313,0.0586 -0.1551848,0 -0.2371691,-0.0791 -0.079056,-0.0791 -0.079056,-0.21374 0,-0.0439 0.00878,-0.0878 0.00586,-0.0586 0.00586,-0.0791 0,-0.0469 -0.032208,-0.0469 -0.04392,0 -0.1171205,0.0995 -0.070272,0.0966 -0.1405447,0.25767 -0.070272,0.16104 -0.1141925,0.33965 -0.032208,0.13761 -0.076128,0.18739 -0.040992,0.0469 -0.1317606,0.0469 z m -0.068991,-0.83448 q 0.081984,0 0.081984,0.12297 0,0.23131 -0.3630737,0.23131 -0.070272,0 -0.2020329,-0.0263 0.038064,0.18154 0.061488,0.40407 0.026352,0.2196 0.026352,0.36307 0,0.31623 -0.1024805,0.48312 -0.1024805,0.1669 -0.2693772,0.1669 -0.210817,0 -0.3015854,-0.29866 -0.08784,-0.29865 -0.08784,-0.90182 0,-0.56218 0.1200485,-1.139 0.1229766,-0.57975 0.3337936,-0.95746 0.213745,-0.38064 0.4684821,-0.38064 0.1376167,0 0.213745,0.12297 0.079056,0.12298 0.079056,0.33087 0,0.68808 -0.8227718,1.49914 -0.02928,0.28695 -0.02928,0.50362 0,0.30158 0.020496,0.61781 0.020496,0.31915 0.067344,0.31915 0.08784,0 0.08784,-0.30451 0,-0.22838 -0.032208,-0.44213 -0.02928,-0.21374 -0.081984,-0.45091 -0.00293,-0.0381 0.023424,-0.0966 0.02928,-0.0586 0.070272,-0.10248 0.040992,-0.0439 0.0732,-0.0439 0.05856,0 0.1405447,0.006 0.026352,0.003 0.061488,0.003 0.1171206,0 0.2605932,-0.0205 0.023424,-0.003 0.049776,-0.006 0.026352,-0.003 0.052704,-0.003 z m -0.2957293,-1.64262 q -0.052704,0 -0.1317607,0.17861 -0.076128,0.17861 -0.1522567,0.47434 -0.076128,0.2928 -0.1317606,0.62074 0.2342411,-0.26645 0.3601457,-0.5534 0.1259046,-0.28987 0.1288326,-0.54168 0,-0.17861 -0.0732,-0.17861 z m -2.0886345,2.4771 q -0.1112645,0 -0.1581127,-0.11712 -0.04392,-0.11712 -0.04392,-0.37479 0,-0.38064 0.1083365,-0.72322 0.026352,-0.0849 0.084912,-0.12297 0.061488,-0.041 0.1698248,-0.041 0.05856,0 0.081984,0.0146 0.023424,0.0146 0.023424,0.0556 0,0.0469 -0.04392,0.21081 -0.02928,0.11712 -0.046848,0.20496 -0.017568,0.0879 -0.02928,0.21668 0.096624,-0.25181 0.216673,-0.40992 0.1200486,-0.15812 0.2342411,-0.22546 0.1171205,-0.0673 0.213745,-0.0673 0.1903209,0 0.1903209,0.19033 0,0.11419 -0.064416,0.41285 -0.055632,0.25473 -0.055632,0.33672 0,0.11712 0.084912,0.11712 0.05856,0 0.1376166,-0.0703 0.081984,-0.0732 0.216673,-0.23425 0.035136,-0.041 0.079056,-0.041 0.038064,0 0.05856,0.0351 0.023424,0.0351 0.023424,0.0966 0,0.11712 -0.055632,0.18154 -0.1259046,0.15518 -0.2723052,0.25474 -0.1434727,0.0996 -0.3279375,0.0996 -0.1493287,0 -0.2254571,-0.0849 -0.076128,-0.0878 -0.076128,-0.25181 0,-0.082 0.040992,-0.2928 0.038064,-0.18447 0.038064,-0.25474 0,-0.0469 -0.032208,-0.0469 -0.038064,0 -0.1083365,0.0995 -0.067344,0.0966 -0.1405447,0.25767 -0.070272,0.16104 -0.1141925,0.33965 -0.032208,0.13761 -0.076128,0.18739 -0.040992,0.0469 -0.1317606,0.0469 z m -0.3488453,-2.48003 q 0.076128,0 0.1288326,0.0381 0.052704,0.0351 0.052704,0.0878 0,0.0937 -0.05856,0.15225 -0.05856,0.0556 -0.1668968,0.0556 -0.1698248,0 -0.2576652,0.003 -0.00586,0.0351 -0.052704,0.31623 -0.052704,0.3133 -0.064416,0.38357 l -0.061488,0.38357 q -0.064416,0.43042 -0.1024805,0.72029 0.061488,-0.003 0.1668968,-0.003 0.1551847,0 0.2108169,0.041 0.055632,0.041 0.055632,0.12298 0,0.0761 -0.061488,0.12883 -0.05856,0.0527 -0.1668968,0.0527 -0.0732,0 -0.231313,-0.006 -0.14640071,-0.006 -0.19324892,-0.006 -0.18446486,0 -0.40406588,0.0322 -0.0966244,0.0146 -0.13761663,0.0146 -0.0644163,0 -0.1083365,-0.0351 -0.0439202,-0.0351 -0.0439202,-0.10248 0,-0.10541 0.0936964,-0.16397 0.0936964,-0.0586 0.26352122,-0.0615 l 0.13761663,-0.003 0.008784,-0.0644 q 0.0702723,-0.46849 0.10248048,-0.66174 l 0.0644163,-0.38357 q 0.0585603,-0.33965 0.10540849,-0.69979 l -0.24595314,0.003 q -0.10540849,0 -0.14640068,-0.0322 -0.0380642,-0.0351 -0.0380642,-0.0966 0,-0.1991 0.28694533,-0.21374 0.13468863,-0.006 0.3279375,-0.006 z"
       style="font-style:normal;font-variant:normal;font-weight:normal;font-stretch:normal;font-size:medium;line-height:1.25;font-family:Pacifico;-inkscape-font-specification:Pacifico;letter-spacing:0px;word-spacing:0px;fill:#4ae387;fill-opacity:1;stroke:none;stroke-width:0.07320035"
       id="path79" />
  </g>
</svg>
